<svg id="Layer_2" height="512" viewBox="0 0 128 128" width="512" xmlns="http://www.w3.org/2000/svg" data-name="Layer 2"><path d="m127.98 126.374c0-.042.02-.081.02-.124v-47.1a1.747 1.747 0 0 0 -.354-1.054l-11.219-14.86-10.027-13.291a1.753 1.753 0 0 0 -1.4-.7 1.75 1.75 0 0 0 -1.4.7l-9.978 13.349-4.285 5.731-4.495-6.585a27.02 27.02 0 1 0 -41.684 0l-4.493 6.588-4.285-5.728-9.98-13.348a1.75 1.75 0 0 0 -1.4-.7 1.753 1.753 0 0 0 -1.4.7l-10.027 13.28-11.219 14.86a1.747 1.747 0 0 0 -.354 1.054v47.1a1.792 1.792 0 0 0 1.75 1.754h124.5a1.769 1.769 0 0 0 1.73-1.626zm-22.975-72.461 7.731 10.24-1.931 2.017-4.758-3.561a1.754 1.754 0 0 0 -2.1 0l-4.755 3.561-1.881-1.965zm-9.819 13.134 2.55 2.663a1.747 1.747 0 0 0 2.312.191l4.952-3.701 4.95 3.7a1.777 1.777 0 0 0 2.312-.191l2.612-2.728 9.626 12.752v40.846l-32.392-47.486-.687-1.008zm-55.01 5.977 6.632-9.724 17.192-25.2 17.191 25.2 6.631 9.722.575.843-3.091 3.092-11.932-6.9a1.792 1.792 0 0 0 -1.817.039l-7.557 4.82-7.559-4.822a1.751 1.751 0 0 0 -1.817-.039l-11.932 6.9-3.092-3.088zm-2.582 3.786 3.573 3.574a1.751 1.751 0 0 0 2.114.277l12.175-7.044 7.6 4.851a1.754 1.754 0 0 0 1.882 0l7.6-4.851 12.175 7.044a1.79 1.79 0 0 0 2.114-.277l3.573-3.574 32.532 47.69h-117.87zm2.886-31.56a23.52 23.52 0 1 1 42.3 14.163l-17.334-25.407a1.75 1.75 0 0 0 -2.892 0l-17.331 25.407a23.447 23.447 0 0 1 -4.743-14.163zm-17.48 8.663 7.694 10.292-1.886 1.965-4.758-3.561a1.772 1.772 0 0 0 -2.1 0l-4.75 3.561-1.932-2.018zm-9.873 13.069 2.612 2.728a1.777 1.777 0 0 0 2.313.191l4.948-3.701 4.951 3.7a1.75 1.75 0 0 0 2.312-.191l2.55-2.663 3.765 5.038-.687 1.008-32.391 47.487v-40.846z"/><path d="m64 11.75a1.75 1.75 0 0 0 1.75-1.75v-8.25a1.75 1.75 0 0 0 -3.5 0v8.25a1.75 1.75 0 0 0 1.75 1.75z"/><path d="m44.859 15.6a1.75 1.75 0 0 0 3.032-1.75l-4.125-7.15a1.75 1.75 0 0 0 -3.032 1.75z"/><path d="m25.453 25.016 7.147 4.125a1.75 1.75 0 0 0 1.75-3.032l-7.15-4.125a1.75 1.75 0 0 0 -1.75 3.032z"/><path d="m94.529 29.375a1.739 1.739 0 0 0 .873-.234l7.145-4.125a1.75 1.75 0 0 0 -1.75-3.032l-7.145 4.125a1.75 1.75 0 0 0 .877 3.266z"/><path d="m80.75 16.238a1.749 1.749 0 0 0 2.391-.64l4.125-7.145a1.75 1.75 0 0 0 -3.032-1.753l-4.125 7.145a1.75 1.75 0 0 0 .641 2.393z"/></svg>